<svg width="20" height="23" viewBox="0 0 20 23" fill="none" xmlns="http://www.w3.org/2000/svg">
<g id="currency-dollar 1">
<path id="Vector" d="M5 15.4977C5.185 17.894 6.89125 19.5946 9.48875 19.8145V21.5625H10.7925V19.8145C13.63 19.5572 15.39 17.7474 15.39 15.0708C15.39 12.7851 14.2063 11.4626 11.695 10.718L10.7925 10.4492V4.98381C12.195 5.14194 13.1413 6.01019 13.38 7.30681H15.2175C15.01 5.00681 13.2925 3.35656 10.7925 3.174V1.4375H9.48875V3.20994C7.065 3.54056 5.40125 5.32594 5.40125 7.74669C5.40125 9.83681 6.60875 11.316 8.7275 11.9399L9.49 12.1728V17.9673C8.05375 17.7229 7.065 16.8173 6.82625 15.4977H5ZM9.23875 9.98344C7.935 9.60538 7.23875 8.7975 7.23875 7.66044C7.23875 6.30344 8.11875 5.3015 9.48875 5.03269V10.0567L9.23875 9.98344ZM11.2275 12.6744C12.8363 13.1388 13.5425 13.9093 13.5425 15.2174C13.5425 16.7943 12.51 17.8451 10.7925 18.0047V12.5494L11.2275 12.6744Z" fill="black"/>
</g>
</svg>
