<svg width="54" height="54" viewBox="0 0 54 54" fill="none" xmlns="http://www.w3.org/2000/svg">
<g id="search 1" clip-path="url(#clip0_37_2)">
<path id="Vector" d="M39.6311 34.9072C42.8991 30.4478 44.3628 24.9189 43.7294 19.4266C43.096 13.9343 40.4121 8.88374 36.2148 5.28528C32.0175 1.68683 26.6162 -0.194119 21.0917 0.0187532C15.5671 0.231625 10.3266 2.52262 6.41862 6.43338C2.51065 10.3441 0.223411 15.5863 0.0144919 21.111C-0.194427 26.6357 1.69038 32.0356 5.29184 36.2304C8.8933 40.4251 13.9458 43.1053 19.4385 43.7348C24.9313 44.3643 30.4591 42.8967 34.9162 39.6255H34.9128C35.0118 39.7605 35.1221 39.8898 35.2436 40.0136L48.2373 53.0073C48.8702 53.6406 49.7287 53.9966 50.624 53.9969C51.5193 53.9972 52.378 53.6419 53.0113 53.009C53.6446 52.3762 54.0005 51.5177 54.0008 50.6224C54.0012 49.7271 53.6458 48.8684 53.013 48.2351L40.0192 35.2413C39.8986 35.1191 39.7689 35.0097 39.6311 34.9072ZM40.5018 21.9337C40.5018 24.3714 40.0217 26.7852 39.0889 29.0373C38.156 31.2894 36.7887 33.3357 35.065 35.0594C33.3413 36.7831 31.295 38.1504 29.0429 39.0832C26.7908 40.0161 24.377 40.4962 21.9393 40.4962C19.5017 40.4962 17.0879 40.0161 14.8358 39.0832C12.5837 38.1504 10.5374 36.7831 8.81367 35.0594C7.08998 33.3357 5.72268 31.2894 4.78983 29.0373C3.85697 26.7852 3.37684 24.3714 3.37684 21.9337C3.37684 17.0106 5.33253 12.2892 8.81367 8.80805C12.2948 5.32691 17.0163 3.37122 21.9393 3.37122C26.8624 3.37122 31.5839 5.32691 35.065 8.80805C38.5462 12.2892 40.5018 17.0106 40.5018 21.9337Z" fill="black"/>
</g>
<defs>
<clipPath id="clip0_37_2">
<rect width="54" height="54" fill="white"/>
</clipPath>
</defs>
</svg>
