<svg width="26" height="20" viewBox="0 0 26 20" fill="white" xmlns="http://www.w3.org/2000/svg">
<path id="Vector" d="M5.25111 0.875C5.25111 0.642936 5.15892 0.420376 4.99482 0.256282C4.83073 0.0921874 4.60817 0 4.37611 0C4.14404 0 3.92148 0.0921874 3.75739 0.256282C3.59329 0.420376 3.50111 0.642936 3.50111 0.875V16.2628L1.49561 14.2555C1.3313 14.0912 1.10846 13.9989 0.876105 13.9989C0.643748 13.9989 0.420907 14.0912 0.256605 14.2555C0.0923037 14.4198 5.47453e-09 14.6426 0 14.875C-5.47453e-09 15.1074 0.0923037 15.3302 0.256605 15.4945L3.75661 18.9927L3.76886 19.005C3.93314 19.1652 4.15407 19.254 4.38352 19.252C4.61297 19.25 4.83234 19.1575 4.99386 18.9945L8.49386 15.4945C8.57521 15.4133 8.63976 15.3168 8.68384 15.2106C8.72791 15.1044 8.75064 14.9906 8.75072 14.8756C8.7508 14.7606 8.72823 14.6468 8.68431 14.5405C8.64039 14.4343 8.57597 14.3377 8.49473 14.2564C8.41349 14.175 8.31702 14.1105 8.21084 14.0664C8.10465 14.0223 7.99082 13.9996 7.87585 13.9995C7.76088 13.9994 7.64702 14.022 7.54077 14.0659C7.43452 14.1098 7.33796 14.1743 7.2566 14.2555L5.25111 16.2628V0.875ZM11.3761 2.625C11.3761 2.39294 11.4683 2.17038 11.6324 2.00628C11.7965 1.84219 12.019 1.75 12.2511 1.75H24.5011C24.7332 1.75 24.9557 1.84219 25.1198 2.00628C25.2839 2.17038 25.3761 2.39294 25.3761 2.625C25.3761 2.85706 25.2839 3.07962 25.1198 3.24372C24.9557 3.40781 24.7332 3.5 24.5011 3.5H12.2511C12.019 3.5 11.7965 3.40781 11.6324 3.24372C11.4683 3.07962 11.3761 2.85706 11.3761 2.625ZM12.2511 7C12.019 7 11.7965 7.09219 11.6324 7.25628C11.4683 7.42038 11.3761 7.64294 11.3761 7.875C11.3761 8.10706 11.4683 8.32962 11.6324 8.49372C11.7965 8.65781 12.019 8.75 12.2511 8.75H21.0011C21.2332 8.75 21.4557 8.65781 21.6198 8.49372C21.7839 8.32962 21.8761 8.10706 21.8761 7.875C21.8761 7.64294 21.7839 7.42038 21.6198 7.25628C21.4557 7.09219 21.2332 7 21.0011 7H12.2511ZM12.2511 12.25C12.019 12.25 11.7965 12.3422 11.6324 12.5063C11.4683 12.6704 11.3761 12.8929 11.3761 13.125C11.3761 13.3571 11.4683 13.5796 11.6324 13.7437C11.7965 13.9078 12.019 14 12.2511 14H17.5011C17.7332 14 17.9557 13.9078 18.1198 13.7437C18.2839 13.5796 18.3761 13.3571 18.3761 13.125C18.3761 12.8929 18.2839 12.6704 18.1198 12.5063C17.9557 12.3422 17.7332 12.25 17.5011 12.25H12.2511ZM12.2511 17.5C12.019 17.5 11.7965 17.5922 11.6324 17.7563C11.4683 17.9204 11.3761 18.1429 11.3761 18.375C11.3761 18.6071 11.4683 18.8296 11.6324 18.9937C11.7965 19.1578 12.019 19.25 12.2511 19.25H14.0011C14.2332 19.25 14.4557 19.1578 14.6198 18.9937C14.7839 18.8296 14.8761 18.6071 14.8761 18.375C14.8761 18.1429 14.7839 17.9204 14.6198 17.7563C14.4557 17.5922 14.2332 17.5 14.0011 17.5H12.2511Z" fill="black"/>
</svg>
